<?xml version="1.0" encoding="iso-8859-1"?>
<!-- Uploaded to: SVG Repo, www.svgrepo.com, Generator: SVG Repo Mixer Tools -->
<svg height="800px" width="800px" version="1.1" id="Layer_1" xmlns="http://www.w3.org/2000/svg" xmlns:xlink="http://www.w3.org/1999/xlink" 
	 viewBox="0 0 512.005 512.005" xml:space="preserve">
<polygon style="fill:#666666;" points="332.855,455.179 167.095,335.298 44.368,452.963 38.832,447.187 166.376,324.907 
	332.392,444.971 467.768,326.835 473.032,332.867 "/>
<g>
	<circle style="fill:#E21B1B;" cx="166.124" cy="329.91" r="41.281"/>
	<circle style="fill:#E21B1B;" cx="470.724" cy="329.91" r="41.281"/>
	<circle style="fill:#E21B1B;" cx="41.281" cy="449.618" r="41.281"/>
	<circle style="fill:#E21B1B;" cx="332.991" cy="449.618" r="41.281"/>
</g>
<path style="fill:#999999;" d="M318.536,279.723v-30.664c-17.972-0.213-35.592-5.002-51.199-13.912l8.536-29.72
	c14.947,8.856,31.948,13.653,49.32,13.912c19.912,0,33.511-9.808,33.511-24.976c0-14.224-11.071-23.4-34.464-31.936
	c-33.2-12-54.704-27.2-54.704-56.584c0-27.2,18.976-48.064,50.904-53.752V21.107h25.92v29.4c15.14,0.154,30.051,3.708,43.632,10.4
	l-8.536,29.088c-13.269-6.96-28.009-10.647-42.992-10.752c-22.136,0-30.04,11.384-30.04,22.136c0,12.96,11.384,20.232,38.256,30.984
	c35.408,13.28,51.199,30.352,51.199,58.496c0,26.864-18.656,50.584-53.432,56.272v32.56L318.536,279.723z"/>
</svg>