<?xml version="1.0" encoding="iso-8859-1"?>
<!-- Uploaded to: SVG Repo, www.svgrepo.com, Generator: SVG Repo Mixer Tools -->
<svg version="1.1" id="Layer_1" xmlns="http://www.w3.org/2000/svg" xmlns:xlink="http://www.w3.org/1999/xlink" 
	 viewBox="0 0 512 512" xml:space="preserve">
<path style="fill:#84DCCF;" d="M280,363.967c0,17.751-14.327,32-32,32s-32-14.25-32-32h-39.535v40.358
	c0,22.091-18.374,40.042-40.465,40.042h160c22.091,0,40.221-17.951,40.221-40.042v-40.358H280z"/>
<rect x="8" y="68.33" style="fill:#F14507;" width="495.993" height="295.996"/>
<g>
	<path style="fill:#027EA8;" d="M280,363.967c0,9.397-4.326,17.751-11.036,24.016h67.257v-24.016H280z"/>
	<path style="fill:#027EA8;" d="M216.001,363.967h-39.535v24.016h50.57C220.327,381.717,216.001,373.364,216.001,363.967z"/>
</g>
<g>
	<rect x="8" y="68.33" style="fill:#FBA218;" width="72" height="295.996"/>
	<rect x="103.998" y="68.33" style="fill:#FBA218;" width="32" height="295.996"/>
	<rect x="160.006" y="68.33" style="fill:#FBA218;" width="16" height="295.996"/>
</g>
<rect x="0" y="330.328" style="fill:#84DCCF;" width="504.002" height="34"/>
<g>
	<rect x="303.848" y="324.293" style="fill:#FFFFFF;" width="15.662" height="15.662"/>
	<rect x="327.864" y="324.293" style="fill:#FFFFFF;" width="15.662" height="15.662"/>
	<rect x="351.879" y="324.293" style="fill:#FFFFFF;" width="16.706" height="15.662"/>
	<rect x="375.895" y="324.293" style="fill:#FFFFFF;" width="15.662" height="15.662"/>
</g>
<path d="M512,60.324H0v312.001h168.113v31.999c0,17.769-14.105,31.689-32.112,31.689H96.066v15.662h199.933
	c26.652,0,47.531-20.8,47.531-47.351v-31.999H512V60.324z M327.868,404.325c0,17.769-13.998,31.689-31.869,31.689H171.471
	c7.645-8.398,12.304-19.513,12.304-31.689v-31.999h25.118c3.87,17.978,19.931,31.642,39.107,31.642s35.236-13.664,39.106-31.642
	h40.762v31.999H327.868z M225.452,372.325h45.096c-3.363,9.268-12.201,15.64-22.547,15.64
	C237.653,387.967,228.816,381.593,225.452,372.325z M16.001,356.325v-16.373h272.19v-15.662H16.001V76.326h479.998v247.963h-87.731
	v15.662h87.731v16.373H16.001z"/>
<g>
	<rect x="247.464" y="84.138" style="fill:#FFFFFF;" width="17.751" height="15.662"/>
	<rect x="456.294" y="99.801" style="fill:#FFFFFF;" width="15.662" height="105.459"/>
	<rect x="456.294" y="220.922" style="fill:#FFFFFF;" width="15.662" height="31.325"/>
	<rect x="456.294" y="268.953" style="fill:#FFFFFF;" width="15.662" height="15.662"/>
</g>
</svg>