<?xml version="1.0" encoding="iso-8859-1"?>
<!-- Uploaded to: SVG Repo, www.svgrepo.com, Generator: SVG Repo Mixer Tools -->
<svg height="800px" width="800px" version="1.1" id="Layer_1" xmlns="http://www.w3.org/2000/svg" xmlns:xlink="http://www.w3.org/1999/xlink" 
	 viewBox="0 0 512.001 512.001" xml:space="preserve">
<polygon style="fill:#5374FC;" points="338.323,299.898 338.323,503.595 256.802,466.2 177.526,503.595 177.526,299.898 "/>
<polygon style="fill:#4D53F1;" points="337.522,300.7 256.001,300.7 256.001,467.001 337.522,504.396 "/>
<path style="opacity:0.25;fill:#4653A5;enable-background:new    ;" d="M177.526,380.18c24.33,10.841,51.273,16.875,79.629,16.875
	c28.954,0,56.437-6.288,81.168-17.565V304.07H177.526V380.18z"/>
<path style="fill:#FF0C38;" d="M264.898,10.889l34.658,30.034l45.394-6.528c6.688-0.961,13.065,3.137,14.969,9.62l12.919,44.004
	l41.717,19.051c6.145,2.807,9.296,9.703,7.392,16.185l-12.922,44.003l24.795,38.58c3.653,5.684,2.574,13.188-2.532,17.612
	l-34.66,30.032l0.001,45.861c0,6.757-4.964,12.487-11.652,13.448l-45.395,6.526l-24.794,38.581
	c-3.652,5.684-10.927,7.819-17.073,5.013L256,343.857l-41.716,19.052c-6.145,2.807-13.42,0.671-17.073-5.013l-24.794-38.581
	l-45.395-6.526c-6.688-0.961-11.652-6.691-11.652-13.448l0.001-45.861L80.713,223.45c-5.106-4.425-6.185-11.929-2.532-17.612
	l24.795-38.58l-12.922-44.005c-1.903-6.483,1.246-13.379,7.392-16.185l41.717-19.051l12.919-44.004
	c1.903-6.483,8.282-10.581,14.969-9.62l45.394,6.528l34.659-30.034C252.211,6.464,259.792,6.464,264.898,10.889z"/>
<circle style="fill:#EEBF00;" cx="255.998" cy="188.571" r="149.656"/>
<path style="opacity:0.27;fill:#663C1D;enable-background:new    ;" d="M433.822,205.837l-24.795-38.58l12.922-44.003
	c1.904-6.483-1.246-13.379-7.392-16.185l-18.201-8.312c-29.691,106.138-127.114,183.991-242.731,183.991
	c-13.005,0-25.779-0.987-38.254-2.886v19.48c0,6.757,4.964,12.487,11.652,13.448l45.395,6.526l24.794,38.581
	c3.652,5.684,10.927,7.819,17.073,5.013l41.716-19.053l41.716,19.053c6.145,2.807,13.42,0.671,17.073-5.013l24.794-38.581
	l45.395-6.526c6.688-0.961,11.652-6.691,11.652-13.448l-0.001-45.861l34.66-30.032C436.395,219.026,437.475,211.521,433.822,205.837
	z"/>
<circle style="fill:#FFEB99;" cx="255.998" cy="188.571" r="115.497"/>
<path style="opacity:0.31;fill:#FFFFFF;enable-background:new    ;" d="M316.032,88.025L158.617,245.439
	c12.077,21.307,30.726,38.396,53.198,48.509l152.726-152.726C354.429,118.751,337.339,100.102,316.032,88.025z"/>
<path d="M256.001,65.465c-67.881,0-123.105,55.225-123.105,123.105c0,67.88,55.225,123.104,123.105,123.104
	S379.106,256.45,379.106,188.57C379.106,120.69,323.881,65.465,256.001,65.465z M256.001,296.466
	c-59.494,0-107.896-48.401-107.896-107.895S196.506,80.674,256.001,80.674s107.896,48.402,107.896,107.896
	S315.495,296.466,256.001,296.466z"/>
<path d="M440.219,201.726l-22.918-35.659l11.943-40.67c2.95-10.044-2.008-20.897-11.529-25.245l-38.558-17.608l-11.941-40.672
	c-2.949-10.042-12.983-16.498-23.348-15.004l-41.956,6.033L269.878,5.142c-7.911-6.855-19.842-6.857-27.754,0L210.09,32.9
	l-41.956-6.033c-10.361-1.49-20.399,4.961-23.348,15.004l-11.941,40.672l-38.558,17.608c-9.523,4.348-14.479,15.201-11.53,25.245
	l11.943,40.67l-22.918,35.659c-5.659,8.807-3.96,20.616,3.95,27.471l32.035,27.757v42.387c-0.001,10.468,7.812,19.486,18.175,20.976
	l41.956,6.032l1.221,1.9v176.147c0,2.604,1.332,5.028,3.533,6.422c2.199,1.396,4.96,1.568,7.316,0.455l76.076-35.886l78.306,35.92
	c1.011,0.463,2.092,0.693,3.17,0.693c1.435,0,2.862-0.405,4.106-1.204c2.18-1.398,3.499-3.81,3.499-6.401V326.202l40.934-5.885
	c10.362-1.49,18.176-10.507,18.175-20.975l-0.001-42.388l32.036-27.757C444.18,222.342,445.878,210.533,440.219,201.726z
	 M414.651,121.111l-7.277,24.779c-4.302-15.239-10.851-29.544-19.262-42.537l23.284,10.633
	C414.086,115.214,415.485,118.276,414.651,121.111z M256.001,330.624c-78.328,0-142.054-63.725-142.054-142.054
	S177.673,46.518,256.001,46.518s142.054,63.725,142.054,142.054S334.33,330.624,256.001,330.624z M323.211,330.726l-14.82,23.06
	c-1.597,2.486-4.828,3.437-7.516,2.207l-24.989-11.413C292.619,342.459,308.534,337.693,323.211,330.726z M236.115,344.58
	l-24.989,11.413c-2.685,1.23-5.918,0.28-7.515-2.207l-14.819-23.06C203.468,337.694,219.384,342.459,236.115,344.58z
	 M346.033,41.922c2.923-0.418,5.758,1.4,6.591,4.235l7.151,24.358c-11.491-10.113-24.461-18.58-38.545-25.027L346.033,41.922z
	 M252.084,16.636c2.234-1.935,5.601-1.935,7.834,0l18.839,16.324c-7.432-1.082-15.028-1.653-22.757-1.653
	c-7.727,0-15.324,0.571-22.756,1.653L252.084,16.636z M165.128,41.862c0.278,0,0.56,0.02,0.842,0.061l24.803,3.566
	c-14.083,6.446-27.054,14.914-38.545,25.026l7.151-24.358C160.131,43.595,162.516,41.862,165.128,41.862z M100.605,113.986
	l23.283-10.633c-8.411,12.994-14.959,27.298-19.261,42.537l-7.277-24.779C96.518,118.276,97.917,115.214,100.605,113.986z
	 M84.578,209.948l14.17-22.048c-0.001,0.224-0.008,0.446-0.008,0.67c0,16.19,2.462,31.815,7.026,46.524l-20.072-17.392
	C83.46,215.769,82.981,212.435,84.578,209.948z M122.976,299.342v-26.986c8.773,13.879,19.654,26.294,32.193,36.797l-27.064-3.89
	C125.182,304.842,122.976,302.298,122.976,299.342z M184.329,351.915l6.485,10.092c3.992,6.212,10.86,9.715,17.904,9.714
	c2.943,0,5.919-0.612,8.726-1.894l30.952-14.136V462.18l-64.068,30.221V351.915H184.329z M263.605,462.123V355.691l30.952,14.136
	c9.522,4.351,20.97,0.988,26.63-7.819l8.73-13.584v144.118L263.605,462.123z M383.896,305.262l-27.064,3.89
	c12.539-10.502,23.421-22.918,32.193-36.797l0.001,26.986C389.025,302.298,386.821,304.842,383.896,305.262z M426.309,217.703
	l-20.072,17.392c4.565-14.709,7.025-30.335,7.025-46.524c0-0.224-0.007-0.446-0.008-0.669l14.17,22.047
	C429.022,212.435,428.542,215.769,426.309,217.703z"/>
<path d="M312.343,160.638H200.363c-4.2,0-7.604,3.404-7.604,7.604s3.405,7.604,7.604,7.604h111.979c4.2,0,7.604-3.404,7.604-7.604
	S316.542,160.638,312.343,160.638z"/>
<path d="M312.343,195.851H200.363c-4.2,0-7.604,3.404-7.604,7.604s3.405,7.604,7.604,7.604h111.979c4.2,0,7.604-3.404,7.604-7.604
	S316.542,195.851,312.343,195.851z"/>
<path d="M292.975,227.28H219.73c-4.2,0-7.604,3.404-7.604,7.604s3.405,7.604,7.604,7.604h73.244c4.2,0,7.604-3.404,7.604-7.604
	S297.174,227.28,292.975,227.28z"/>
<path d="M219.731,143.188h73.244c4.2,0,7.604-3.404,7.604-7.604s-3.405-7.604-7.604-7.604h-73.244c-4.2,0-7.604,3.404-7.604,7.604
	S215.531,143.188,219.731,143.188z"/>
</svg>