<?xml version="1.0" encoding="iso-8859-1"?>
<!-- Uploaded to: SVG Repo, www.svgrepo.com, Generator: SVG Repo Mixer Tools -->
<svg height="800px" width="800px" version="1.1" id="Layer_1" xmlns="http://www.w3.org/2000/svg" xmlns:xlink="http://www.w3.org/1999/xlink" 
	 viewBox="0 0 503.607 503.607" xml:space="preserve">
<g transform="translate(1 1)">
	<path style="fill:#FFDD09;" d="M452.246,494.213H49.361c-23.502,0-41.967-18.466-41.967-41.967V49.361
		c0-23.502,18.466-41.967,41.967-41.967h402.885c23.502,0,41.967,18.466,41.967,41.967v402.885
		C494.213,475.747,475.747,494.213,452.246,494.213"/>
	<path style="fill:#FD9808;" d="M452.246,7.393h-25.18c23.502,0,41.967,18.466,41.967,41.967v402.885
		c0,23.502-18.466,41.967-41.967,41.967h25.18c23.502,0,41.967-18.466,41.967-41.967V49.361
		C494.213,25.859,475.747,7.393,452.246,7.393"/>
	<path style="fill:#FFFFFF;" d="M49.361,7.393h25.18c-22.662,0-41.967,18.466-41.967,41.967v402.885
		c0,23.502,18.466,41.967,41.967,41.967h-25.18c-23.502,0-41.967-18.466-41.967-41.967V49.361
		C7.393,25.859,26.698,7.393,49.361,7.393"/>
	<path style="fill:#FCC309;" d="M443.852,250.803c0-106.597-86.452-193.049-193.049-193.049S57.754,144.207,57.754,250.803
		s86.452,193.049,193.049,193.049S443.852,357.4,443.852,250.803"/>
	<path style="fill:#FD9808;" d="M250.803,57.754c-4.197,0-8.393,0-12.59,0.839c100.721,5.875,180.459,89.81,180.459,192.21
		s-79.738,186.334-180.459,192.21c4.197,0,8.393,0.839,12.59,0.839c106.597,0,193.049-86.452,193.049-193.049
		S357.4,57.754,250.803,57.754"/>
	<path style="fill:#FFDD09;" d="M326.344,208.836h-67.148l58.754-92.328h-67.148l-75.541,134.295h55.397l-55.397,134.295
		L326.344,208.836z"/>
	<path d="M175.262,393.492c-1.679,0-3.357,0-4.197-0.839c-3.357-2.518-5.036-6.715-3.357-10.072l51.2-123.384h-43.646
		c-3.357,0-5.875-1.679-7.554-4.197s-1.679-5.875,0-8.393l75.541-134.295c1.679-2.518,4.197-4.197,7.554-4.197h67.148
		c3.357,0,5.875,1.679,7.554,4.197s1.679,5.875,0,8.393l-50.361,79.738h51.2c3.357,0,5.875,1.679,7.554,5.036
		c1.679,3.357,0.839,6.715-0.839,9.233L181.977,390.974C180.298,392.652,177.78,393.492,175.262,393.492z M189.531,242.41h41.128
		c2.518,0,5.036,1.679,6.715,3.357c1.679,2.518,1.679,5.036,0.839,7.554l-35.252,85.613l104.918-121.705h-48.682
		c-3.357,0-5.875-1.679-7.554-4.197c-1.679-2.518-1.679-5.875,0-8.393l50.361-79.738H255L189.531,242.41z"/>
	<path d="M452.246,502.607H49.361C21.662,502.607-1,479.944-1,452.246V49.361C-1,21.662,21.662-1,49.361-1h402.885
		c27.698,0,50.361,22.662,50.361,50.361v402.885C502.607,479.944,479.944,502.607,452.246,502.607z M49.361,15.787
		c-18.466,0-33.574,15.108-33.574,33.574v402.885c0,18.466,15.108,33.574,33.574,33.574h402.885
		c18.466,0,33.574-15.108,33.574-33.574V49.361c0-18.466-15.108-33.574-33.574-33.574H49.361z"/>
	<path d="M250.803,452.246c-110.793,0-201.443-90.649-201.443-201.443S140.01,49.361,250.803,49.361s201.443,90.649,201.443,201.443
		S361.597,452.246,250.803,452.246z M250.803,66.148c-101.561,0-184.656,83.095-184.656,184.656s83.095,184.656,184.656,184.656
		s184.656-83.095,184.656-184.656S352.364,66.148,250.803,66.148z"/>
	<path d="M66.148,49.361c0-9.233-7.554-16.787-16.787-16.787s-16.787,7.554-16.787,16.787s7.554,16.787,16.787,16.787
		S66.148,58.593,66.148,49.361"/>
	<path d="M66.148,452.246c0-9.233-7.554-16.787-16.787-16.787s-16.787,7.554-16.787,16.787c0,9.233,7.554,16.787,16.787,16.787
		S66.148,461.479,66.148,452.246"/>
	<path d="M469.033,49.361c0-9.233-7.554-16.787-16.787-16.787c-9.233,0-16.787,7.554-16.787,16.787s7.554,16.787,16.787,16.787
		C461.479,66.148,469.033,58.593,469.033,49.361"/>
	<path d="M469.033,452.246c0-9.233-7.554-16.787-16.787-16.787c-9.233,0-16.787,7.554-16.787,16.787
		c0,9.233,7.554,16.787,16.787,16.787C461.479,469.033,469.033,461.479,469.033,452.246"/>
</g>
</svg>