<svg width="1200" height="630" viewBox="0 0 1200 630" fill="none" xmlns="http://www.w3.org/2000/svg">
<rect width="1200" height="630" fill="#4CCD9A"/>
<path d="M362.911 340.72C358.351 340.72 354.439 339.976 351.175 338.488C347.959 337 345.439 334.816 343.615 331.936C341.839 329.056 340.855 325.48 340.663 321.208C340.615 319.24 340.591 317.128 340.591 314.872C340.591 312.616 340.615 310.456 340.663 308.392C340.855 304.216 341.863 300.688 343.687 297.808C345.511 294.88 348.055 292.672 351.319 291.184C354.583 289.648 358.447 288.88 362.911 288.88C366.079 288.88 369.007 289.288 371.695 290.104C374.383 290.872 376.735 292.024 378.751 293.56C380.767 295.048 382.327 296.872 383.431 299.032C384.583 301.144 385.183 303.544 385.231 306.232C385.279 306.664 385.135 307.024 384.799 307.312C384.511 307.6 384.151 307.744 383.719 307.744H373.999C373.375 307.744 372.895 307.624 372.559 307.384C372.223 307.096 371.935 306.592 371.695 305.872C371.023 303.328 369.919 301.6 368.383 300.688C366.895 299.728 365.047 299.248 362.839 299.248C360.199 299.248 358.111 299.992 356.575 301.48C355.039 302.92 354.199 305.344 354.055 308.752C353.911 312.688 353.911 316.72 354.055 320.848C354.199 324.256 355.039 326.704 356.575 328.192C358.111 329.632 360.199 330.352 362.839 330.352C365.047 330.352 366.919 329.872 368.455 328.912C369.991 327.952 371.071 326.224 371.695 323.728C371.887 323.008 372.151 322.528 372.487 322.288C372.871 322 373.375 321.856 373.999 321.856H383.719C384.151 321.856 384.511 322 384.799 322.288C385.135 322.576 385.279 322.936 385.231 323.368C385.183 326.056 384.583 328.48 383.431 330.64C382.327 332.752 380.767 334.576 378.751 336.112C376.735 337.6 374.383 338.752 371.695 339.568C369.007 340.336 366.079 340.72 362.911 340.72ZM409.722 340.72C405.69 340.72 402.282 340.072 399.498 338.776C396.762 337.48 394.65 335.632 393.162 333.232C391.722 330.784 390.906 327.88 390.714 324.52C390.666 323.56 390.642 322.48 390.642 321.28C390.642 320.032 390.666 318.952 390.714 318.04C390.906 314.632 391.77 311.728 393.306 309.328C394.842 306.928 396.978 305.08 399.714 303.784C402.498 302.488 405.834 301.84 409.722 301.84C413.658 301.84 416.994 302.488 419.73 303.784C422.514 305.08 424.674 306.928 426.21 309.328C427.746 311.728 428.61 314.632 428.802 318.04C428.85 318.952 428.874 320.032 428.874 321.28C428.874 322.48 428.85 323.56 428.802 324.52C428.61 327.88 427.77 330.784 426.282 333.232C424.842 335.632 422.73 337.48 419.946 338.776C417.21 340.072 413.802 340.72 409.722 340.72ZM409.722 331.936C411.882 331.936 413.442 331.288 414.402 329.992C415.41 328.696 415.986 326.752 416.13 324.16C416.178 323.44 416.202 322.48 416.202 321.28C416.202 320.08 416.178 319.12 416.13 318.4C415.986 315.856 415.41 313.936 414.402 312.64C413.442 311.296 411.882 310.624 409.722 310.624C407.61 310.624 406.05 311.296 405.042 312.64C404.034 313.936 403.482 315.856 403.386 318.4C403.338 319.12 403.314 320.08 403.314 321.28C403.314 322.48 403.338 323.44 403.386 324.16C403.482 326.752 404.034 328.696 405.042 329.992C406.05 331.288 407.61 331.936 409.722 331.936ZM437.755 340C437.227 340 436.795 339.832 436.459 339.496C436.123 339.16 435.955 338.728 435.955 338.2V304.36C435.955 303.832 436.123 303.4 436.459 303.064C436.795 302.728 437.227 302.56 437.755 302.56H445.603C446.131 302.56 446.563 302.728 446.899 303.064C447.235 303.4 447.403 303.832 447.403 304.36V306.808C448.363 305.512 449.707 304.384 451.435 303.424C453.163 302.416 455.203 301.888 457.555 301.84C463.075 301.744 466.867 303.832 468.931 308.104C470.035 306.28 471.619 304.792 473.683 303.64C475.747 302.44 478.003 301.84 480.451 301.84C482.947 301.84 485.179 302.416 487.147 303.568C489.163 304.672 490.771 306.4 491.971 308.752C493.171 311.056 493.771 314.056 493.771 317.752V338.2C493.771 338.728 493.579 339.16 493.195 339.496C492.859 339.832 492.451 340 491.971 340H483.619C483.091 340 482.635 339.832 482.251 339.496C481.915 339.16 481.747 338.728 481.747 338.2V318.256C481.747 316.576 481.507 315.256 481.027 314.296C480.547 313.288 479.899 312.568 479.083 312.136C478.267 311.704 477.331 311.488 476.275 311.488C475.411 311.488 474.547 311.704 473.683 312.136C472.867 312.568 472.195 313.288 471.667 314.296C471.187 315.256 470.947 316.576 470.947 318.256V338.2C470.947 338.728 470.779 339.16 470.443 339.496C470.107 339.832 469.675 340 469.147 340H460.795C460.267 340 459.835 339.832 459.499 339.496C459.163 339.16 458.995 338.728 458.995 338.2V318.256C458.995 316.576 458.731 315.256 458.203 314.296C457.675 313.288 457.003 312.568 456.187 312.136C455.371 311.704 454.459 311.488 453.451 311.488C452.587 311.488 451.723 311.704 450.859 312.136C450.043 312.568 449.371 313.288 448.843 314.296C448.363 315.256 448.123 316.552 448.123 318.184V338.2C448.123 338.728 447.931 339.16 447.547 339.496C447.211 339.832 446.779 340 446.251 340H437.755ZM503.638 340C503.11 340 502.678 339.832 502.342 339.496C502.006 339.16 501.838 338.728 501.838 338.2V304.36C501.838 303.832 502.006 303.4 502.342 303.064C502.678 302.728 503.11 302.56 503.638 302.56H512.134C512.614 302.56 513.022 302.728 513.358 303.064C513.742 303.4 513.934 303.832 513.934 304.36V338.2C513.934 338.728 513.742 339.16 513.358 339.496C513.022 339.832 512.614 340 512.134 340H503.638ZM503.566 297.16C503.038 297.16 502.606 296.992 502.27 296.656C501.934 296.32 501.766 295.888 501.766 295.36V288.952C501.766 288.424 501.934 287.992 502.27 287.656C502.606 287.272 503.038 287.08 503.566 287.08H512.134C512.662 287.08 513.094 287.272 513.43 287.656C513.814 287.992 514.006 288.424 514.006 288.952V295.36C514.006 295.888 513.814 296.32 513.43 296.656C513.094 296.992 512.662 297.16 512.134 297.16H503.566ZM526.419 340C525.891 340 525.459 339.832 525.123 339.496C524.787 339.16 524.619 338.728 524.619 338.2V304.36C524.619 303.832 524.787 303.4 525.123 303.064C525.459 302.728 525.891 302.56 526.419 302.56H534.699C535.227 302.56 535.659 302.728 535.995 303.064C536.331 303.4 536.499 303.832 536.499 304.36V307.096C537.747 305.608 539.379 304.36 541.395 303.352C543.411 302.344 545.787 301.84 548.523 301.84C551.307 301.84 553.755 302.464 555.867 303.712C558.027 304.96 559.707 306.808 560.907 309.256C562.155 311.656 562.779 314.608 562.779 318.112V338.2C562.779 338.728 562.587 339.16 562.203 339.496C561.867 339.832 561.459 340 560.979 340H551.907C551.427 340 550.995 339.832 550.611 339.496C550.275 339.16 550.107 338.728 550.107 338.2V318.544C550.107 316.288 549.555 314.56 548.451 313.36C547.395 312.112 545.811 311.488 543.699 311.488C541.731 311.488 540.147 312.112 538.947 313.36C537.795 314.56 537.219 316.288 537.219 318.544V338.2C537.219 338.728 537.027 339.16 536.643 339.496C536.307 339.832 535.899 340 535.419 340H526.419ZM589.174 355.84C585.478 355.84 582.406 355.36 579.958 354.4C577.558 353.44 575.638 352.288 574.198 350.944C572.806 349.6 571.798 348.256 571.174 346.912C570.55 345.616 570.214 344.584 570.166 343.816C570.118 343.288 570.286 342.856 570.67 342.52C571.054 342.184 571.51 342.016 572.038 342.016H581.182C581.614 342.016 581.974 342.112 582.262 342.304C582.598 342.544 582.862 342.928 583.054 343.456C583.294 343.984 583.606 344.536 583.99 345.112C584.422 345.688 584.998 346.144 585.718 346.48C586.486 346.864 587.518 347.056 588.814 347.056C590.254 347.056 591.454 346.816 592.414 346.336C593.374 345.904 594.094 345.16 594.574 344.104C595.054 343.096 595.294 341.728 595.294 340V335.176C594.19 336.376 592.774 337.36 591.046 338.128C589.318 338.848 587.23 339.208 584.782 339.208C582.334 339.208 580.174 338.848 578.302 338.128C576.43 337.408 574.87 336.328 573.622 334.888C572.374 333.448 571.39 331.696 570.67 329.632C569.998 327.568 569.59 325.192 569.446 322.504C569.398 321.256 569.398 320.008 569.446 318.76C569.59 316.168 569.998 313.84 570.67 311.776C571.342 309.712 572.302 307.936 573.55 306.448C574.846 304.96 576.43 303.832 578.302 303.064C580.174 302.248 582.334 301.84 584.782 301.84C587.374 301.84 589.582 302.344 591.406 303.352C593.278 304.312 594.814 305.536 596.014 307.024V304.36C596.014 303.88 596.182 303.472 596.518 303.136C596.854 302.752 597.286 302.56 597.814 302.56H606.094C606.622 302.56 607.054 302.752 607.39 303.136C607.774 303.472 607.966 303.88 607.966 304.36V338.992C607.966 342.64 607.222 345.712 605.734 348.208C604.246 350.704 602.11 352.6 599.326 353.896C596.542 355.192 593.158 355.84 589.174 355.84ZM588.67 329.848C590.206 329.848 591.454 329.512 592.414 328.84C593.374 328.168 594.07 327.304 594.502 326.248C594.982 325.192 595.246 324.064 595.294 322.864C595.342 322.336 595.366 321.592 595.366 320.632C595.366 319.672 595.342 318.952 595.294 318.472C595.246 317.224 594.982 316.072 594.502 315.016C594.07 313.96 593.374 313.12 592.414 312.496C591.454 311.824 590.206 311.488 588.67 311.488C587.086 311.488 585.814 311.824 584.854 312.496C583.942 313.168 583.27 314.08 582.838 315.232C582.454 316.384 582.214 317.656 582.118 319.048C582.07 320.104 582.07 321.184 582.118 322.288C582.214 323.68 582.454 324.952 582.838 326.104C583.27 327.256 583.942 328.168 584.854 328.84C585.814 329.512 587.086 329.848 588.67 329.848ZM647.183 340.72C644.063 340.72 641.399 340.384 639.191 339.712C637.031 338.992 635.255 338.128 633.863 337.12C632.519 336.112 631.511 335.08 630.839 334.024C630.167 332.92 629.807 331.984 629.759 331.216C629.711 330.688 629.879 330.256 630.263 329.92C630.647 329.536 631.055 329.344 631.487 329.344H639.695C639.839 329.344 639.959 329.368 640.055 329.416C640.151 329.464 640.295 329.56 640.487 329.704C641.111 330.04 641.735 330.472 642.359 331C642.983 331.48 643.703 331.912 644.519 332.296C645.335 332.68 646.319 332.872 647.471 332.872C648.815 332.872 649.943 332.608 650.855 332.08C651.767 331.552 652.223 330.76 652.223 329.704C652.223 328.936 652.007 328.312 651.575 327.832C651.143 327.304 650.255 326.8 648.911 326.32C647.615 325.84 645.647 325.36 643.007 324.88C640.511 324.304 638.327 323.56 636.455 322.648C634.583 321.688 633.143 320.464 632.135 318.976C631.127 317.44 630.623 315.592 630.623 313.432C630.623 311.512 631.247 309.664 632.495 307.888C633.743 306.112 635.567 304.672 637.967 303.568C640.367 302.416 643.319 301.84 646.823 301.84C649.607 301.84 652.007 302.176 654.023 302.848C656.087 303.472 657.815 304.288 659.207 305.296C660.647 306.304 661.727 307.336 662.447 308.392C663.167 309.448 663.551 310.408 663.599 311.272C663.647 311.752 663.503 312.184 663.167 312.568C662.831 312.904 662.447 313.072 662.015 313.072H654.527C654.335 313.072 654.143 313.048 653.951 313C653.759 312.904 653.591 312.808 653.447 312.712C652.871 312.424 652.295 312.04 651.719 311.56C651.143 311.08 650.471 310.648 649.703 310.264C648.935 309.88 647.975 309.688 646.823 309.688C645.527 309.688 644.519 309.976 643.799 310.552C643.079 311.128 642.719 311.872 642.719 312.784C642.719 313.408 642.911 313.984 643.295 314.512C643.727 315.04 644.567 315.52 645.815 315.952C647.111 316.384 649.103 316.864 651.791 317.392C655.103 317.92 657.743 318.784 659.711 319.984C661.679 321.136 663.071 322.504 663.887 324.088C664.703 325.624 665.111 327.256 665.111 328.984C665.111 331.288 664.415 333.328 663.023 335.104C661.679 336.88 659.663 338.272 656.975 339.28C654.287 340.24 651.023 340.72 647.183 340.72ZM689.284 340.72C685.252 340.72 681.844 340.072 679.06 338.776C676.324 337.48 674.212 335.632 672.724 333.232C671.284 330.784 670.468 327.88 670.276 324.52C670.228 323.56 670.204 322.48 670.204 321.28C670.204 320.032 670.228 318.952 670.276 318.04C670.468 314.632 671.332 311.728 672.868 309.328C674.404 306.928 676.54 305.08 679.276 303.784C682.06 302.488 685.396 301.84 689.284 301.84C693.22 301.84 696.556 302.488 699.292 303.784C702.076 305.08 704.236 306.928 705.772 309.328C707.308 311.728 708.172 314.632 708.364 318.04C708.412 318.952 708.436 320.032 708.436 321.28C708.436 322.48 708.412 323.56 708.364 324.52C708.172 327.88 707.332 330.784 705.844 333.232C704.404 335.632 702.292 337.48 699.508 338.776C696.772 340.072 693.364 340.72 689.284 340.72ZM689.284 331.936C691.444 331.936 693.004 331.288 693.964 329.992C694.972 328.696 695.548 326.752 695.692 324.16C695.74 323.44 695.764 322.48 695.764 321.28C695.764 320.08 695.74 319.12 695.692 318.4C695.548 315.856 694.972 313.936 693.964 312.64C693.004 311.296 691.444 310.624 689.284 310.624C687.172 310.624 685.612 311.296 684.604 312.64C683.596 313.936 683.044 315.856 682.948 318.4C682.9 319.12 682.876 320.08 682.876 321.28C682.876 322.48 682.9 323.44 682.948 324.16C683.044 326.752 683.596 328.696 684.604 329.992C685.612 331.288 687.172 331.936 689.284 331.936ZM733.23 340.72C729.198 340.72 725.79 340.072 723.006 338.776C720.27 337.48 718.158 335.632 716.67 333.232C715.23 330.784 714.414 327.88 714.222 324.52C714.174 323.56 714.15 322.48 714.15 321.28C714.15 320.032 714.174 318.952 714.222 318.04C714.414 314.632 715.278 311.728 716.814 309.328C718.35 306.928 720.486 305.08 723.222 303.784C726.006 302.488 729.342 301.84 733.23 301.84C737.166 301.84 740.502 302.488 743.238 303.784C746.022 305.08 748.182 306.928 749.718 309.328C751.254 311.728 752.118 314.632 752.31 318.04C752.358 318.952 752.382 320.032 752.382 321.28C752.382 322.48 752.358 323.56 752.31 324.52C752.118 327.88 751.278 330.784 749.79 333.232C748.35 335.632 746.238 337.48 743.454 338.776C740.718 340.072 737.31 340.72 733.23 340.72ZM733.23 331.936C735.39 331.936 736.95 331.288 737.91 329.992C738.918 328.696 739.494 326.752 739.638 324.16C739.686 323.44 739.71 322.48 739.71 321.28C739.71 320.08 739.686 319.12 739.638 318.4C739.494 315.856 738.918 313.936 737.91 312.64C736.95 311.296 735.39 310.624 733.23 310.624C731.118 310.624 729.558 311.296 728.55 312.64C727.542 313.936 726.99 315.856 726.894 318.4C726.846 319.12 726.822 320.08 726.822 321.28C726.822 322.48 726.846 323.44 726.894 324.16C726.99 326.752 727.542 328.696 728.55 329.992C729.558 331.288 731.118 331.936 733.23 331.936ZM761.263 340C760.735 340 760.303 339.832 759.967 339.496C759.631 339.16 759.463 338.728 759.463 338.2V304.36C759.463 303.832 759.631 303.4 759.967 303.064C760.303 302.728 760.735 302.56 761.263 302.56H769.543C770.071 302.56 770.503 302.728 770.839 303.064C771.175 303.4 771.343 303.832 771.343 304.36V307.096C772.591 305.608 774.223 304.36 776.239 303.352C778.255 302.344 780.631 301.84 783.367 301.84C786.151 301.84 788.599 302.464 790.711 303.712C792.871 304.96 794.551 306.808 795.751 309.256C796.999 311.656 797.623 314.608 797.623 318.112V338.2C797.623 338.728 797.431 339.16 797.047 339.496C796.711 339.832 796.303 340 795.823 340H786.751C786.271 340 785.839 339.832 785.455 339.496C785.119 339.16 784.951 338.728 784.951 338.2V318.544C784.951 316.288 784.399 314.56 783.295 313.36C782.239 312.112 780.655 311.488 778.543 311.488C776.575 311.488 774.991 312.112 773.791 313.36C772.639 314.56 772.063 316.288 772.063 318.544V338.2C772.063 338.728 771.871 339.16 771.487 339.496C771.151 339.832 770.743 340 770.263 340H761.263ZM807.098 340C806.57 340 806.138 339.832 805.802 339.496C805.466 339.16 805.298 338.728 805.298 338.2V329.056C805.298 328.576 805.466 328.168 805.802 327.832C806.138 327.448 806.57 327.256 807.098 327.256H816.17C816.698 327.256 817.13 327.448 817.466 327.832C817.85 328.168 818.042 328.576 818.042 329.056V338.2C818.042 338.728 817.85 339.16 817.466 339.496C817.13 339.832 816.698 340 816.17 340H807.098ZM827.559 340C827.031 340 826.599 339.832 826.263 339.496C825.927 339.16 825.759 338.728 825.759 338.2V329.056C825.759 328.576 825.927 328.168 826.263 327.832C826.599 327.448 827.031 327.256 827.559 327.256H836.631C837.159 327.256 837.591 327.448 837.927 327.832C838.311 328.168 838.503 328.576 838.503 329.056V338.2C838.503 338.728 838.311 339.16 837.927 339.496C837.591 339.832 837.159 340 836.631 340H827.559ZM848.02 340C847.492 340 847.06 339.832 846.724 339.496C846.388 339.16 846.22 338.728 846.22 338.2V329.056C846.22 328.576 846.388 328.168 846.724 327.832C847.06 327.448 847.492 327.256 848.02 327.256H857.092C857.62 327.256 858.052 327.448 858.388 327.832C858.772 328.168 858.964 328.576 858.964 329.056V338.2C858.964 338.728 858.772 339.16 858.388 339.496C858.052 339.832 857.62 340 857.092 340H848.02Z" fill="#030713"/>
</svg>
